# xmcd
#
# Track frame offsets: 
#        150
#        13012
#        23642
#        37045
#        53500
#        70887
#        99117
#        112820
#        124430
#        138480
#        155897
#        176405
#
# Disc length: 2529 seconds
#
# Revision: 0
# Processed by: cddbd v1.5.2PL0 Copyright (c) Steve Scherf et al.
# Submitted via: ExactAudioCopy v1.0b4
#
DISCID=9909df0c
DTITLE=Mojo Watson - Inheritance
DYEAR=2002
DGENRE=Blues, Electric Blues, Chicago Blues
TTITLE0=I Love My Baby
TTITLE1=When You Put Me Down
TTITLE2=You Are Always Down Wrong
TTITLE3=Oh How I've Suffered
TTITLE4=Please Help Me Baby
TTITLE5=This Is a Cold Cruel World
TTITLE6=Keep Away From Me Judas
TTITLE7=Hey Little Girl
TTITLE8=I Kept On Trying
TTITLE9=She's One of the Finest
TTITLE10=We're Going Down
TTITLE11=Casey Jones' Last Ride
EXTD=
EXTT0=
EXTT1=
EXTT2=
EXTT3=
EXTT4=
EXTT5=
EXTT6=
EXTT7=
EXTT8=
EXTT9=
EXTT10=
EXTT11=
PLAYORDER=
